<svg xmlns="http://www.w3.org/2000/svg" xmlns:xlink="http://www.w3.org/1999/xlink" width="20" height="19" viewBox="0 0 20 19"><defs><path id="kuzfa" d="M501.817 11276.705c0 2.043-1.841 3.635-5.406 3.635-3.128 0-6.208-1.149-6.208-3.194 0-2.074 2.848-3.761 5.975-3.761.341 0 .654-.004.977-.004-.427-.421-.767-.922-.767-1.552 0-.375.12-.717.287-1.037-.171.013-.345.058-.523.058-2.57 0-4.29-1.752-4.29-4.029 0-2.226 2.376-3.98 4.902-3.98h5.633l-1.26.832h-1.787c1.185 0 1.712 1.72 1.712 3.144 0 1.195-.555 2.097-1.487 2.829-.909.714-1.081 1.012-1.081 1.618 0 .518.974 1.397 1.482 1.762 1.489 1.057 1.84 2.038 1.84 3.679zm-2.676-9.905c-.251-1.911-1.631-3.45-3.082-3.492-1.45-.045-2.423 1.42-2.172 3.335.25 1.916 1.628 3.504 3.08 3.546 1.451.043 2.424-1.472 2.174-3.389zm1.15 10.133c0-.199-.025-.394-.069-.58-.237-.937-.872-1.4-2.046-2.222a4.732 4.732 0 0 0-1.402-.224c-2.162-.025-4.098 1.324-4.098 2.941 0 1.652 1.562 2.586 3.723 2.586 3.04 0 3.892-.849 3.892-2.5zm7.352-13.299v2.54h2.482v1.676h-2.482v2.5h-1.658v-2.5h-2.483v-1.676h2.483v-2.54z"/></defs><g><g transform="translate(-490 -11262)"><use xlink:href="#kuzfa"/></g></g></svg>