<svg xmlns="http://www.w3.org/2000/svg" xmlns:xlink="http://www.w3.org/1999/xlink" width="21" height="20" viewBox="0 0 21 20"><defs><path id="9k4ma" d="M526.715 11268.671h4.14v12.489h-4.14zm19.885 5.408v7.081h-4.141v-6.802c0-1.394-.997-2.79-2.631-2.79-1.635 0-2.357 1.396-2.357 2.825v6.767h-4.14v-12.488h4.114v1.71c1.147-1.467 2.209-2.128 4.017-2.128 1.809 0 5.138.905 5.138 5.825zm-15.363-9.289c0 1.214-1.09 2.2-2.434 2.2-1.346 0-2.436-.986-2.436-2.2 0-1.212 1.09-2.2 2.436-2.2 1.344 0 2.434.988 2.434 2.2z"/></defs><g><g transform="translate(-526 -11262)"><use xlink:href="#9k4ma"/></g></g></svg>