<svg xmlns="http://www.w3.org/2000/svg" xmlns:xlink="http://www.w3.org/1999/xlink" width="21" height="20" viewBox="0 0 21 20"><defs><path id="64ina" d="M456.237 11279.071c0 1.6-1.297 2.891-2.9 2.891a2.894 2.894 0 0 1-2.9-2.891 2.897 2.897 0 0 1 2.9-2.891c1.603 0 2.9 1.296 2.9 2.891zm7.44 2.689c0 .079-.01.153-.013.232h-3.7c.001-.08.011-.153.011-.232 0-5.087-4.28-9.382-9.384-9.382-.05 0-.102.007-.153.008v-3.689c.05-.001.103-.01.153-.01 7.144 0 13.086 5.95 13.086 13.073zm6.63 0c0 .077-.005.153-.006.232h-3.65c.002-.08.007-.155.007-.232 0-8.775-7.264-16.019-16.067-16.019-.05 0-.102.004-.153.004v-3.716c.05 0 .103-.004.153-.004 10.844 0 19.716 8.925 19.716 19.735z"/></defs><g><g transform="translate(-450 -11262)"><use xlink:href="#64ina"/></g></g></svg>