<svg xmlns="http://www.w3.org/2000/svg" xmlns:xlink="http://www.w3.org/1999/xlink" width="25" height="23" viewBox="0 0 25 23"><defs><path id="2o4ba" d="M430.542 11266.058c-.335.186-1.34.557-2.277.65.601-.327 1.49-1.392 1.71-2.24-.578.372-1.905.913-2.56.913v.001c-.747-.783-1.8-1.405-2.966-1.405-2.267 0-3.923 1.977-3.923 4.253 0 .316.037.625.104.921h-.001c-3.075-.082-6.618-1.787-8.643-4.436-1.244 2.164-.167 4.727 1.245 5.605-.483.037-1.374-.055-1.792-.467-.028 1.437.659 3.34 3.166 4.03-.482.261-1.337.187-1.709.13.13 1.214 1.82 2.8 3.669 2.8-.659.764-3.137 2.153-5.919 1.712a12.287 12.287 0 0 0 6.42 1.822c6.623 0 12.05-5.39 11.773-12.042l-.001-.023.001-.052-.002-.06c.603-.415 1.127-1.148 1.705-2.112z"/><mask id="2o4bc" width="2.02" height="2.02" x="-1.01" y="-1.01"><path fill="#fff" d="M409.8 11263.8h21.4v17.4h-21.4z"/><use xlink:href="#2o4ba"/></mask><filter id="2o4bb" width="47.2" height="46.2" x="396.9" y="11250.9" filterUnits="userSpaceOnUse"><feOffset dy="3" in="SourceGraphic" result="FeOffset1086Out"/><feGaussianBlur in="FeOffset1086Out" result="FeGaussianBlur1087Out" stdDeviation="1.16 1.16"/></filter></defs><g><g transform="translate(-408 -11264)"><g filter="url(#2o4bb)"><use fill="none" stroke="#000" stroke-opacity=".25" stroke-width=".4" mask="url(&quot;#2o4bc&quot;)" xlink:href="#2o4ba"/><use fill-opacity=".25" xlink:href="#2o4ba"/></g><use fill="#e74c3c" xlink:href="#2o4ba"/></g></g></svg>